# xmcd CD database file
#
# Track frame offsets:
#	150
#	23872
#	58728
#	82632
#	106446
#	154007
#	175158
#	195545
#	222320
#	237961
#	252713
#	278504
#	295446
#
# Disc length: 4297 seconds
#
# Revision: 0
# Processed by: cddbd v1.5.2PL0 Copyright (c) Steve Scherf et al.
# Submitted via: CDex 1.83
#
DISCID=b510c70d
DTITLE=Thelonious Monk - The Complete Albums Collection, Vol. 2 CD03
DYEAR=2015
DGENRE=Jazz
TTITLE0=The Way You Look Tonight
TTITLE1=I Want To Be Happy
TTITLE2=Work
TTITLE3=Nutty
TTITLE4=Friday The 13th
TTITLE5=It Don't Mean A Thing (If It Ain't Got That Swing)
TTITLE6=Sophisticated Lady
TTITLE7=I Got It Bad And That Ain't Good
TTITLE8=Black and Tan Fantasy
TTITLE9=Mood Indigo
TTITLE10=I Let A Song Go Out Of My Heart
TTITLE11=Solitude
TTITLE12=Caravan
EXTD=YEAR: 2015
EXTT0=
EXTT1=
EXTT2=
EXTT3=
EXTT4=
EXTT5=
EXTT6=
EXTT7=
EXTT8=
EXTT9=
EXTT10=
EXTT11=
EXTT12=
PLAYORDER=
